<svg width="40" height="40" viewBox="0 0 40 40" fill="none" xmlns="http://www.w3.org/2000/svg">
<path d="M32.4 14.8V12.4H28.9234C28.6484 11.8203 28.1797 11.3515 27.6 11.0765V7.59998H25.2V10.8H21.2V7.59998H18.8V10.8H14.8V7.59998H12.4V11.0719C11.8172 11.3484 11.3484 11.8172 11.0719 12.4H7.59998V14.8H10.8V18.8H7.59998V21.2H10.8V25.2H7.59998V27.6H11.0719C11.3484 28.1828 11.8172 28.6515 12.4 28.9281V32.4H14.8V29.2H18.8V32.4H21.2V29.2H25.2V32.4H27.6V28.9234C28.1797 28.6484 28.6484 28.1797 28.9234 27.6H32.4V25.2H29.2V21.2H32.4V18.8H29.2V14.8H32.4ZM26.8 18.8V26.4C26.8 26.5062 26.7578 26.6078 26.6828 26.6828C26.6078 26.7578 26.5062 26.8 26.4 26.8H13.6C13.3797 26.8 13.2 26.6203 13.2 26.4V13.6C13.2 13.3797 13.3797 13.2 13.6 13.2H26.4C26.5062 13.2 26.6078 13.2422 26.6828 13.3172C26.7578 13.3922 26.8 13.4937 26.8 13.6V18.8Z" fill="black"/>
</svg>
