<svg width="42" height="42" viewBox="0 0 42 42" fill="none" xmlns="http://www.w3.org/2000/svg">
<path fill-rule="evenodd" clip-rule="evenodd" d="M15.5874 4.30835C15.6842 4.31163 15.781 4.32968 15.8713 4.36577C15.9615 4.40022 16.0452 4.45272 16.119 4.51507C16.1928 4.57905 16.2535 4.65616 16.3011 4.73984C16.3487 4.82515 16.3799 4.91703 16.3963 5.01382C16.411 5.10897 16.411 5.20741 16.393 5.30257C16.3749 5.39772 16.3405 5.4896 16.2913 5.57327C16.1928 5.74062 16.0353 5.87187 15.8516 5.93749C11.1774 7.69788 7.84846 12.2115 7.84846 17.5123C7.84846 21.1036 9.37751 24.3276 11.8171 26.5897C11.9172 26.6832 11.9943 26.8014 12.0402 26.931C12.0845 27.0606 12.0977 27.2 12.0763 27.3362L11.0099 34.1663L24.1072 37.5853L24.7356 32.7717C24.7503 32.6568 24.7897 32.5436 24.8504 32.4436C24.9111 32.3435 24.9931 32.2565 25.0883 32.1909C25.1835 32.1236 25.2934 32.0777 25.4082 32.0564C25.5231 32.0334 25.6412 32.0367 25.756 32.0613L29.6722 32.9538L30.3432 28.8555C30.3596 28.7587 30.3925 28.6636 30.4417 28.5783C30.4909 28.4929 30.5532 28.4158 30.6287 28.3518C30.7042 28.2879 30.7911 28.237 30.883 28.2042C30.9749 28.1697 31.075 28.1533 31.1734 28.1533H33.9608L32.3842 20.6656C32.371 20.5999 32.3645 20.531 32.3661 20.4638L32.5105 16.1605C32.0167 11.6177 29.0619 7.81464 25.008 6.10818C24.9047 6.06716 24.8112 6.00482 24.7324 5.92607C24.6537 5.84732 24.5897 5.7538 24.547 5.65209C24.5044 5.55037 24.483 5.43881 24.483 5.32724C24.483 5.21568 24.506 5.10576 24.5487 5.0024C24.5913 4.90068 24.6553 4.80717 24.7341 4.72842C24.8128 4.65131 24.908 4.58896 25.0113 4.54795C25.1147 4.50693 25.2262 4.48724 25.3362 4.48889C25.4477 4.49053 25.5576 4.51514 25.6594 4.55943C30.2844 6.50685 33.6461 10.8544 34.1875 16.0406C34.1908 16.0783 34.1924 16.1177 34.1908 16.1554L34.0464 20.4176L35.815 28.8192C35.8412 28.9406 35.8379 29.0686 35.81 29.19C35.7805 29.3114 35.7247 29.4246 35.646 29.5214C35.5672 29.6182 35.4671 29.697 35.3556 29.7511C35.2424 29.8053 35.1193 29.8331 34.9946 29.8331H31.8857L31.1868 34.1104C31.1687 34.2236 31.126 34.3319 31.0653 34.4287C31.003 34.5255 30.9226 34.6075 30.8275 34.6715C30.7323 34.7355 30.624 34.7798 30.5125 34.8011C30.4009 34.8224 30.2828 34.8192 30.1712 34.7946L26.2829 33.9086L25.6513 38.7516C25.6365 38.8698 25.5955 38.983 25.5332 39.0847C25.4708 39.1864 25.3871 39.2733 25.2887 39.339C25.1903 39.4046 25.0771 39.4505 24.9606 39.4702C24.8441 39.4899 24.7227 39.485 24.6079 39.4555L9.85367 35.6033C9.75359 35.577 9.66008 35.5327 9.5764 35.472C9.49273 35.4113 9.42055 35.3358 9.36476 35.2505C9.30898 35.1652 9.26796 35.0684 9.24664 34.9667C9.22531 34.8666 9.22203 34.7616 9.23843 34.6599L10.3557 27.5115C7.7783 24.9636 6.17542 21.4215 6.17542 17.5151C6.17542 11.5103 9.95214 6.37038 15.2663 4.36867C15.3713 4.32765 15.4829 4.30796 15.5944 4.31124L15.5874 4.30835Z" fill="black"/>
<path fill-rule="evenodd" clip-rule="evenodd" d="M22.619 2.52002C22.729 2.52002 22.8389 2.54135 22.9406 2.584C23.0423 2.62666 23.1358 2.689 23.213 2.76611C23.2901 2.84322 23.3524 2.93674 23.3951 3.03846C23.4377 3.14017 23.459 3.2501 23.459 3.36002V15.7416C25.1801 16.7063 26.3482 18.5471 26.3482 20.6506C26.3482 22.4257 25.518 24.0139 24.2252 25.0459L26.1841 28.437C26.2416 28.5322 26.2776 28.6388 26.2941 28.7488C26.3088 28.8587 26.3039 28.9719 26.2744 29.0785C26.2465 29.1852 26.1973 29.2869 26.13 29.3755C26.0627 29.4641 25.9774 29.5379 25.8823 29.5937C25.7871 29.6495 25.6788 29.6856 25.5689 29.6987C25.459 29.7134 25.3458 29.7052 25.2391 29.6757C25.1325 29.6462 25.0308 29.5953 24.9438 29.5281C24.8569 29.4592 24.783 29.3738 24.7289 29.277L22.7716 25.8892C22.1351 26.1402 21.4427 26.278 20.7192 26.278C17.6201 26.278 15.092 23.7498 15.092 20.6508C15.092 18.5475 16.2601 16.7051 17.9812 15.7419V3.36026C17.9812 3.25034 18.0025 3.14042 18.0452 3.0387C18.0878 2.93698 18.1502 2.84347 18.2273 2.76635C18.3044 2.68925 18.3979 2.6269 18.4996 2.58425C18.6013 2.54159 18.7113 2.52026 18.8212 2.52026L22.619 2.52002ZM21.779 4.20002H19.6626V15.1284C20.0055 15.0628 20.3599 15.0283 20.7208 15.0283C21.0818 15.0283 21.4361 15.0628 21.779 15.1284L21.779 4.20002ZM20.7209 16.708C18.529 16.708 16.7735 18.4635 16.7735 20.6521C16.7735 22.844 18.529 24.5994 20.7209 24.5994C22.9078 24.5994 24.6682 22.8439 24.6682 20.6521C24.6682 18.4652 22.9078 16.708 20.7209 16.708Z" fill="black"/>
</svg>
