<svg width="1440" height="664" viewBox="0 0 1440 664" fill="none" xmlns="http://www.w3.org/2000/svg">
<path opacity="0.2" fill-rule="evenodd" clip-rule="evenodd" d="M1503.45 151.565C1471.65 134.204 1414.49 112.11 1346.32 102.209C1278.15 92.3088 1198.93 94.5984 1123.02 126.042C1099.28 135.879 1082.81 147.954 1071.67 161.591C1060.54 175.231 1054.75 190.406 1052.33 206.406C1048.16 233.925 1053.92 263.934 1059.47 292.797C1060.37 297.452 1061.25 302.077 1062.1 306.657C1065.13 323.169 1067.53 339.101 1067.35 353.788C1067.17 368.471 1064.4 381.876 1057.12 393.353C1042.56 416.294 1009.79 431.756 942.695 434.005C841.722 437.389 772.522 407.807 713.894 382.743L713.893 382.743C694.642 374.513 676.531 366.771 658.808 360.843C622.965 348.853 588.732 344.31 549.988 358.307C511.269 372.295 468.107 404.776 414.335 466.676C360.635 528.494 315.82 546.85 275.844 541.236C235.809 535.613 200.447 505.938 165.691 471.213C157.295 462.825 148.936 454.143 140.557 445.441L140.557 445.441C114.296 418.166 87.8433 390.692 59.4929 371.458C40.7811 358.763 21.2108 349.632 0.282196 346.505C-20.6536 343.377 -42.9168 346.263 -67 357.552L-66.5756 358.457C-42.6588 347.246 -20.5939 344.397 0.13443 347.494C20.8699 350.592 40.2996 359.644 58.9315 372.285C87.1869 391.455 113.534 418.819 139.778 446.075C148.171 454.792 156.553 463.497 164.984 471.92C199.728 506.633 235.303 536.552 275.705 542.226C316.166 547.908 361.289 529.265 415.09 467.332C468.817 405.483 511.843 373.151 550.327 359.248C588.786 345.354 622.772 349.843 658.491 361.791C676.114 367.686 694.163 375.402 713.373 383.615C772.029 408.692 841.51 438.397 942.729 435.004C1009.89 432.753 1043.12 417.277 1057.96 393.889C1065.38 382.203 1068.17 368.596 1068.35 353.8C1068.53 339.009 1066.11 322.996 1063.08 306.476C1062.24 301.913 1061.36 297.311 1060.47 292.685L1060.45 292.583C1054.9 263.705 1049.17 233.89 1053.32 206.556C1055.72 190.704 1061.44 175.703 1072.45 162.224C1083.46 148.742 1099.77 136.755 1123.4 126.966C1199.1 95.61 1278.13 93.3162 1346.18 103.199C1414.23 113.082 1471.27 135.138 1502.97 152.443L1503.45 151.565ZM1366.32 142.209C1434.49 152.11 1491.65 174.204 1523.45 191.565L1522.97 192.443C1491.27 175.138 1434.23 153.082 1366.18 143.199C1298.13 133.316 1219.1 135.61 1143.4 166.966C1119.77 176.755 1103.46 188.742 1092.45 202.224C1081.44 215.703 1075.72 230.704 1073.32 246.556C1069.17 273.89 1074.9 303.705 1080.45 332.583L1080.47 332.685L1080.49 332.811C1081.37 337.395 1082.25 341.954 1083.08 346.476C1086.11 362.996 1088.53 379.009 1088.35 393.8C1088.17 408.596 1085.38 422.203 1077.96 433.889C1063.12 457.277 1029.89 472.753 962.729 475.004C861.51 478.397 792.029 448.692 733.373 423.615C714.163 415.402 696.114 407.686 678.491 401.791C642.772 389.843 608.786 385.354 570.327 399.248C531.843 413.151 488.817 445.483 435.09 507.332C381.289 569.265 336.166 587.908 295.705 582.226C255.303 576.552 219.728 546.633 184.984 511.92C176.553 503.497 168.171 494.792 159.778 486.075C133.534 458.819 107.187 431.455 78.9315 412.285C60.2996 399.644 40.8699 390.592 20.1344 387.494C-0.593872 384.397 -22.6588 387.246 -46.5756 398.457L-47 397.552C-22.9168 386.263 -0.653564 383.377 20.2822 386.505C41.2108 389.632 60.7811 398.763 79.4929 411.458C107.843 430.692 134.296 458.166 160.557 485.441L160.557 485.441C168.936 494.143 177.295 502.825 185.691 511.213C220.447 545.938 255.809 575.613 295.844 581.236C335.82 586.85 380.635 568.494 434.335 506.676C488.107 444.776 531.269 412.295 569.988 398.307C608.732 384.31 642.965 388.853 678.808 400.843C696.531 406.771 714.642 414.513 733.893 422.743L733.894 422.743C792.522 447.807 861.722 477.389 962.696 474.005C1029.79 471.756 1062.56 456.294 1077.12 433.353C1084.4 421.876 1087.17 408.471 1087.35 393.788C1087.53 379.101 1085.13 363.169 1082.1 346.657C1081.25 342.077 1080.37 337.452 1079.47 332.797C1073.92 303.934 1068.16 273.925 1072.33 246.406C1074.75 230.406 1080.54 215.231 1091.67 201.591C1102.81 187.954 1119.28 175.879 1143.02 166.042C1218.93 134.598 1298.15 132.309 1366.32 142.209ZM1543.45 231.565C1511.65 214.203 1454.49 192.11 1386.32 182.209C1318.15 172.309 1238.93 174.598 1163.02 206.042C1139.28 215.879 1122.81 227.954 1111.67 241.591C1100.54 255.231 1094.75 270.406 1092.33 286.406C1088.16 313.925 1093.92 343.934 1099.47 372.797C1100.37 377.452 1101.25 382.077 1102.1 386.657C1105.13 403.169 1107.53 419.101 1107.35 433.788C1107.17 448.471 1104.4 461.876 1097.12 473.353C1082.56 496.294 1049.79 511.756 982.696 514.005C881.722 517.389 812.522 487.807 753.894 462.743L753.893 462.743C734.642 454.513 716.531 446.771 698.808 440.843C662.965 428.853 628.732 424.31 589.988 438.307C551.269 452.295 508.107 484.776 454.335 546.676C400.635 608.494 355.82 626.85 315.844 621.236C275.809 615.613 240.447 585.938 205.691 551.213C197.295 542.825 188.936 534.143 180.557 525.441C154.296 498.166 127.843 470.692 99.4929 451.458C80.7811 438.763 61.2108 429.632 40.2822 426.505C19.3464 423.377 -2.9168 426.263 -27 437.552L-26.5756 438.457C-2.65876 427.246 19.4061 424.397 40.1344 427.494C60.8699 430.592 80.2996 439.644 98.9315 452.285C127.187 471.455 153.534 498.819 179.778 526.075C188.171 534.792 196.553 543.497 204.984 551.92C239.728 586.633 275.303 616.552 315.705 622.226C356.166 627.908 401.289 609.265 455.09 547.332C508.817 485.483 551.843 453.151 590.327 439.248C628.786 425.354 662.772 429.843 698.491 441.791C716.114 447.686 734.163 455.402 753.373 463.615C812.029 488.692 881.51 518.397 982.729 515.004C1049.89 512.753 1083.12 497.277 1097.96 473.889C1105.38 462.203 1108.17 448.596 1108.35 433.8C1108.53 419.009 1106.11 402.996 1103.08 386.476C1102.24 381.913 1101.36 377.31 1100.47 372.684L1100.45 372.583C1094.9 343.705 1089.17 313.89 1093.32 286.556C1095.72 270.704 1101.44 255.703 1112.45 242.224C1123.46 228.742 1139.77 216.755 1163.4 206.966C1239.1 175.61 1318.13 173.316 1386.18 183.199C1454.23 193.082 1511.27 215.138 1542.97 232.443L1543.45 231.565ZM1563.45 271.565C1531.65 254.203 1474.49 232.11 1406.32 222.209C1338.15 212.309 1258.93 214.598 1183.02 246.042C1159.28 255.879 1142.81 267.954 1131.67 281.591C1120.54 295.231 1114.75 310.406 1112.33 326.406C1108.16 353.925 1113.92 383.934 1119.47 412.797C1120.37 417.452 1121.25 422.077 1122.1 426.657C1125.13 443.169 1127.53 459.101 1127.35 473.788C1127.17 488.471 1124.4 501.876 1117.12 513.353C1102.56 536.294 1069.79 551.756 1002.7 554.005C901.722 557.389 832.522 527.807 773.894 502.743L773.893 502.743C754.642 494.513 736.531 486.771 718.808 480.843C682.965 468.853 648.732 464.31 609.988 478.307C571.269 492.295 528.107 524.776 474.335 586.676C420.635 648.494 375.82 666.85 335.844 661.236C295.809 655.613 260.447 625.938 225.691 591.213C217.299 582.829 208.943 574.15 200.567 565.451L200.559 565.442L200.557 565.441C174.296 538.166 147.843 510.692 119.493 491.458C100.781 478.763 81.2108 469.632 60.2822 466.505C39.3464 463.377 17.0832 466.263 -7 477.552L-6.57557 478.457C17.3412 467.246 39.4061 464.397 60.1344 467.494C80.8699 470.592 100.3 479.644 118.932 492.285C147.187 511.455 173.534 538.819 199.778 566.075C208.171 574.792 216.553 583.497 224.984 591.92C259.728 626.633 295.303 656.552 335.705 662.226C376.166 667.908 421.289 649.265 475.09 587.332C528.817 525.483 571.843 493.151 610.327 479.248C648.786 465.354 682.772 469.843 718.491 481.791C736.114 487.686 754.163 495.402 773.373 503.615C832.029 528.692 901.51 558.397 1002.73 555.004C1069.89 552.753 1103.12 537.277 1117.96 513.889C1125.38 502.203 1128.17 488.596 1128.35 473.8C1128.53 459.009 1126.11 442.996 1123.08 426.476C1122.24 421.913 1121.36 417.31 1120.47 412.684L1120.45 412.583C1114.9 383.705 1109.17 353.89 1113.32 326.556C1115.72 310.704 1121.44 295.703 1132.45 282.224C1143.46 268.742 1159.77 256.755 1183.4 246.966C1259.1 215.61 1338.13 213.316 1406.18 223.199C1474.23 233.082 1531.27 255.138 1562.97 272.443L1563.45 271.565Z" fill="url(#paint0_linear_119_42439)"/>
<path opacity="0.2" fill-rule="evenodd" clip-rule="evenodd" d="M1500.39 516.811C1468.26 534.349 1410.53 556.667 1341.66 566.667C1272.8 576.668 1192.77 574.356 1116.1 542.593C1092.11 532.657 1075.48 520.46 1064.23 506.685C1052.98 492.907 1047.14 477.579 1044.69 461.418C1040.48 433.62 1046.3 403.307 1051.91 374.151L1051.91 374.136C1052.81 369.439 1053.71 364.772 1054.56 360.151C1057.62 343.471 1060.05 327.377 1059.87 312.54C1059.68 297.708 1056.89 284.166 1049.53 272.571C1034.82 249.395 1001.72 233.777 933.941 231.505C831.941 228.086 762.038 257.969 702.815 283.287C683.368 291.6 665.073 299.421 647.171 305.41C610.965 317.521 576.386 322.109 537.249 307.97C498.138 293.841 454.539 261.032 400.222 198.503C345.976 136.058 300.705 117.514 260.321 123.185C219.878 128.865 184.155 158.843 149.047 193.92C140.566 202.393 132.121 211.164 123.657 219.954C97.1299 247.506 70.4093 275.258 41.7718 294.687C22.8704 307.511 3.10223 316.734 -18.0378 319.893C-39.185 323.052 -61.6732 320.137 -86 308.734L-85.5756 307.829C-61.4152 319.154 -39.1253 322.032 -18.1856 318.904C2.76126 315.774 22.3889 306.629 41.2103 293.86C69.7529 274.495 96.3685 246.853 122.879 219.32C131.357 210.515 139.824 201.721 148.34 193.213C183.436 158.148 219.371 127.927 260.182 122.195C301.051 116.455 346.631 135.286 400.977 197.847C455.25 260.325 498.713 292.986 537.589 307.03C576.439 321.065 610.772 316.531 646.854 304.461C664.656 298.507 682.888 290.712 702.293 282.415L702.294 282.415C761.545 257.084 831.729 227.078 933.975 230.505C1001.81 232.779 1035.38 248.412 1050.37 272.035C1057.87 283.839 1060.68 297.583 1060.87 312.528C1061.05 327.469 1058.6 343.645 1055.54 360.331C1054.69 364.963 1053.79 369.634 1052.89 374.329L1052.88 374.366C1047.28 403.537 1041.49 433.655 1045.68 461.268C1048.11 477.282 1053.89 492.435 1065.01 506.052C1076.13 519.672 1092.61 531.781 1116.48 541.669C1192.94 573.344 1272.78 575.661 1341.52 565.678C1410.26 555.694 1467.89 533.414 1499.91 515.933L1500.39 516.811ZM1361.87 526.262C1430.73 516.261 1488.46 493.943 1520.59 476.405L1520.11 475.527C1488.09 493.008 1430.47 515.288 1361.72 525.272C1292.98 535.255 1213.15 532.938 1136.68 501.263C1112.81 491.375 1096.33 479.266 1085.21 465.646C1074.09 452.029 1068.31 436.876 1065.88 420.862C1061.7 393.249 1067.48 363.131 1073.09 333.96L1073.09 333.923C1074 329.228 1074.89 324.557 1075.74 319.925C1078.81 303.239 1081.25 287.063 1081.07 272.122C1080.89 257.177 1078.07 243.433 1070.58 231.629C1055.58 208.006 1022.02 192.373 954.178 190.099C851.932 186.672 781.748 216.678 722.497 242.009L722.496 242.009C703.091 250.306 684.859 258.101 667.057 264.055C630.975 276.125 596.642 280.659 557.792 266.624C518.916 252.58 475.453 219.919 421.18 157.441C366.834 94.8805 321.254 76.0493 280.385 81.7891C239.574 87.5207 203.639 117.742 168.543 152.807C160.027 161.315 151.56 170.109 143.082 178.914C116.571 206.447 89.9559 234.089 61.4133 253.454C42.5919 266.223 22.9642 275.368 2.01739 278.498C-18.9223 281.626 -41.2122 278.748 -65.3726 267.423L-65.797 268.328C-41.4702 279.731 -18.982 282.646 2.16515 279.487C23.3052 276.328 43.0734 267.105 61.9747 254.281C90.6123 234.852 117.333 207.1 143.86 179.549C152.324 170.758 160.769 161.987 169.25 153.514C204.358 118.437 240.081 88.4594 280.524 82.7794C320.908 77.1077 366.179 95.6519 420.425 158.097C474.742 220.626 518.341 253.435 557.452 267.564C596.589 281.703 631.168 277.115 667.374 265.004C685.276 259.015 703.571 251.194 723.018 242.881C782.241 217.563 852.144 187.68 954.144 191.099C1021.92 193.371 1055.02 208.989 1069.73 232.165C1077.09 243.76 1079.89 257.302 1080.07 272.134C1080.25 286.971 1077.82 303.065 1074.76 319.745C1073.91 324.362 1073.02 329.024 1072.12 333.716L1072.11 333.729L1072.11 333.745C1066.51 362.901 1060.68 393.214 1064.89 421.012C1067.34 437.173 1073.19 452.501 1084.44 466.279C1095.68 480.054 1112.32 492.251 1136.3 502.187C1212.98 533.95 1293 536.262 1361.87 526.262ZM1540.79 435.999C1508.67 453.537 1450.93 475.855 1382.07 485.856C1313.2 495.856 1233.18 493.544 1156.5 461.781C1132.52 451.845 1115.89 439.648 1104.64 425.873C1093.39 412.095 1087.55 396.767 1085.1 380.606C1080.88 352.808 1086.71 322.495 1092.31 293.339L1092.32 293.323L1092.32 293.309C1093.22 288.617 1094.12 283.955 1094.96 279.339C1098.03 262.659 1100.46 246.565 1100.27 231.728C1100.09 216.896 1097.3 203.354 1089.94 191.759C1075.22 168.583 1042.12 152.965 974.347 150.693C872.347 147.274 802.444 177.157 743.221 202.475C723.774 210.788 705.479 218.609 687.577 224.598C651.37 236.709 616.792 241.297 577.655 227.159C538.544 213.029 494.945 180.22 440.628 117.691C386.382 55.246 341.111 36.7017 300.727 42.3734C260.284 48.0534 224.561 78.031 189.453 113.108C180.972 121.581 172.527 130.352 164.063 139.143C137.536 166.694 110.815 194.446 82.1777 213.875C63.2764 226.699 43.5082 235.922 22.3681 239.081C1.22095 242.24 -21.2672 239.325 -45.594 227.922L-45.1696 227.017C-21.0092 238.342 1.28064 241.22 22.2204 238.092C43.1672 234.962 62.7949 225.817 81.6163 213.048C110.159 193.683 136.774 166.041 163.285 138.508L163.285 138.508C171.763 129.703 180.23 120.909 188.746 112.401C223.842 77.3357 259.777 47.1147 300.588 41.3832C341.457 35.6433 387.037 54.4745 441.383 117.035C495.656 179.513 539.119 212.174 577.995 226.218C616.845 240.253 651.177 235.719 687.26 223.649C705.062 217.695 723.294 209.9 742.699 201.603L742.7 201.603C801.951 176.272 872.135 146.266 974.381 149.693C1042.22 151.967 1075.79 167.6 1090.78 191.223C1098.27 203.027 1101.09 216.771 1101.27 231.716C1101.46 246.657 1099.01 262.833 1095.95 279.519C1095.1 284.151 1094.2 288.822 1093.3 293.517L1093.29 293.554C1087.69 322.725 1081.9 352.843 1086.09 380.456C1088.51 396.47 1094.29 411.623 1105.41 425.24C1116.53 438.86 1133.02 450.969 1156.89 460.857C1233.35 492.532 1313.18 494.849 1381.93 484.866C1450.67 474.882 1508.29 452.602 1540.31 435.122L1540.79 435.999ZM1561 395.593C1528.87 413.131 1471.13 435.449 1402.27 445.45C1333.41 455.451 1253.38 453.138 1176.71 421.375C1152.72 411.439 1136.09 399.242 1124.84 385.467C1113.59 371.689 1107.75 356.361 1105.3 340.2C1101.09 312.402 1106.91 282.089 1112.52 252.933L1112.52 252.919L1112.52 252.907L1112.52 252.891C1113.43 248.203 1114.32 243.545 1115.17 238.933C1118.23 222.253 1120.66 206.159 1120.48 191.322C1120.29 176.49 1117.5 162.948 1110.14 151.353C1095.43 128.177 1062.32 112.559 994.55 110.287C892.55 106.868 822.647 136.751 763.424 162.069C743.977 170.382 725.682 178.203 707.78 184.192C671.573 196.303 636.995 200.891 597.858 186.753C558.747 172.623 515.148 139.814 460.831 77.2852C406.585 14.84 361.314 -3.70422 320.93 1.96741C280.487 7.64746 244.764 37.625 209.655 72.7022C201.175 81.1753 192.73 89.9457 184.266 98.7366C157.739 126.288 131.018 154.04 102.381 173.469C83.4794 186.293 63.7112 195.516 42.5711 198.675C21.4239 201.834 -1.06425 198.919 -25.391 187.516L-24.9666 186.611C-0.806213 197.936 21.4836 200.814 42.4234 197.686C63.3702 194.556 82.9979 185.411 101.819 172.642C130.362 153.277 156.977 125.635 183.488 98.1019C191.966 89.2969 200.433 80.5031 208.949 71.9948C244.045 36.9297 279.98 6.70874 320.791 0.977173C361.66 -4.7627 407.24 14.0686 461.586 76.6294C515.859 139.107 559.322 171.768 598.198 185.812C637.048 199.847 671.38 195.313 707.463 183.243C725.265 177.289 743.497 169.494 762.902 161.198L762.903 161.197C822.154 135.866 892.338 105.86 994.584 109.287C1062.42 111.561 1095.99 127.194 1110.98 150.817C1118.47 162.621 1121.29 176.365 1121.48 191.31C1121.66 206.251 1119.21 222.427 1116.15 239.113C1115.3 243.745 1114.4 248.416 1113.5 253.111L1113.49 253.148C1107.89 282.319 1102.1 312.437 1106.29 340.05C1108.72 356.064 1114.5 371.217 1125.62 384.834C1136.74 398.454 1153.22 410.563 1177.09 420.451C1253.55 452.126 1333.39 454.443 1402.13 444.46C1470.87 434.476 1528.5 412.196 1560.52 394.716L1561 395.593Z" fill="url(#paint1_linear_119_42439)"/>
<defs>
<linearGradient id="paint0_linear_119_42439" x1="120.5" y1="519.5" x2="1549.5" y2="519.5" gradientUnits="userSpaceOnUse">
<stop offset="0.341667" stop-color="#4535AF" stop-opacity="0.7"/>
<stop offset="0.511553" stop-color="#F8EFF4" stop-opacity="0.1"/>
<stop offset="0.851637" stop-color="#4535AF" stop-opacity="0.8"/>
</linearGradient>
<linearGradient id="paint1_linear_119_42439" x1="103.402" y1="145.149" x2="1546.9" y2="145.149" gradientUnits="userSpaceOnUse">
<stop offset="0.310417" stop-color="#4535AF" stop-opacity="0.7"/>
<stop offset="0.461458" stop-color="#F8EFF4" stop-opacity="0.1"/>
<stop offset="0.851637" stop-color="#4535AF" stop-opacity="0.8"/>
</linearGradient>
</defs>
</svg>
