<svg width="86" height="85" viewBox="0 0 86 85" fill="none" xmlns="http://www.w3.org/2000/svg">
<path d="M72.837 82.875H59.2897V78.8906H72.837C76.5558 78.8906 79.4777 75.9688 79.4777 72.25V12.4848C79.4777 8.76605 76.5558 5.84418 72.837 5.84418H12.8058C9.08704 5.84418 6.16516 8.76605 6.16516 12.4848V72.5161C6.16516 76.2348 9.08704 79.1567 12.8058 79.1567H26.3531V83.1411H12.8058C6.96204 83.1411 2.18079 78.3598 2.18079 72.5161V12.4848C2.18079 6.64105 6.96204 1.8598 12.8058 1.8598H72.837C78.6808 1.8598 83.462 6.64105 83.462 12.4848V72.5161C83.462 78.3598 78.6808 82.8759 72.837 82.8759V82.875Z" fill="black"/>
<path d="M40.962 40.6402H44.9464V81.0152H40.962V40.6402Z" fill="black"/>
<path d="M64.6031 42.5H21.0406L42.8218 20.7188L64.6031 42.5ZM30.6031 38.5156H55.0406L42.8218 26.2969L30.6031 38.5156Z" fill="black"/>
</svg>
