<svg width="85" height="85" viewBox="0 0 85 85" fill="none" xmlns="http://www.w3.org/2000/svg">
<path fill-rule="evenodd" clip-rule="evenodd" d="M31.3242 37.4527H53.6767V56.4485H31.3242V37.4527ZM34.6578 40.7863H50.3429V53.1147H34.6578V40.7863Z" fill="black"/>
<path d="M38.0145 37.1977V38.8645H34.6809V32.8215C34.6809 30.7463 35.5044 28.7575 36.9686 27.2898C38.4362 25.8256 40.4284 24.9988 42.5003 24.9988C44.5721 24.9988 46.5643 25.8256 48.0319 27.2898C49.4962 28.7575 50.3196 30.7463 50.3196 32.8215V38.8645H46.986V32.8215C46.986 31.6328 46.5145 30.4873 45.6744 29.6472C44.831 28.8072 43.6889 28.3324 42.5002 28.3324C41.3114 28.3324 40.1693 28.8072 39.3259 29.6472C38.4859 30.4873 38.0144 31.6328 38.0144 32.8215L38.0145 37.1977Z" fill="black"/>
<path d="M41.0091 7.30805L39.9964 5.98324L42.6427 3.95786L43.6554 5.27935C44.4788 6.3518 45.3455 7.38778 46.2618 8.38049C47.2148 9.41979 48.2043 10.4191 49.2368 11.3754C50.3093 12.3748 51.415 13.3377 52.5538 14.2607C53.7391 15.2203 54.9511 16.1433 56.1928 17.0298C57.4778 17.9495 58.7893 18.8328 60.1208 19.6795C61.4987 20.556 62.8932 21.4027 64.3143 22.2129C65.7719 23.0463 67.2494 23.8531 68.7403 24.6234C70.5963 25.583 72.4756 26.5027 74.3715 27.376C74.3283 28.9232 74.2287 30.4638 74.0694 32.0045C73.9432 33.2263 73.7838 34.4449 73.5946 35.6568C73.1928 38.2168 72.6615 40.7535 72.0041 43.2603C71.3235 45.88 70.5067 48.4599 69.5604 50.9934C68.6041 53.5733 67.5018 56.0901 66.2567 58.5438C65.6358 59.7656 64.9751 60.9676 64.2778 62.1463C63.5872 63.3184 62.8534 64.4639 62.0798 65.5829C61.3128 66.6885 60.5059 67.7676 59.6559 68.8102C58.8159 69.8395 57.9294 70.8323 57.003 71.7852C56.0833 72.7282 55.1237 73.6214 54.1177 74.468C53.1215 75.308 52.079 76.0883 50.9965 76.8088C49.9175 77.5293 48.7952 78.1801 47.6397 78.7645C46.4743 79.3489 45.2757 79.8569 44.0438 80.2819L42.4699 80.8264L41.3809 77.6755L42.9548 77.131C44.0438 76.7558 45.1097 76.3042 46.1423 75.7863C47.1783 75.265 48.1809 74.6806 49.1472 74.0398C50.1267 73.3823 51.0696 72.6751 51.9728 71.9181C52.8925 71.1444 53.7757 70.3243 54.6124 69.4611C55.4724 68.5778 56.2926 67.6581 57.0695 66.7019C57.8663 65.7291 58.62 64.723 59.3373 63.687C60.0677 62.6345 60.7584 61.5521 61.4091 60.4497C62.0732 59.3308 62.6974 58.1919 63.2851 57.0331C64.4704 54.6956 65.5263 52.2917 66.4393 49.8313C67.3458 47.4008 68.1261 44.9273 68.7802 42.4204C69.4077 40.0198 69.9157 37.5893 70.3009 35.1389C70.4835 33.9834 70.6329 32.8246 70.7525 31.6592C70.8288 30.9221 70.8919 30.1849 70.9384 29.4445C69.6866 28.8435 68.4448 28.2226 67.2097 27.5818C65.6757 26.7916 64.155 25.9649 62.6575 25.1048C61.1932 24.2681 59.7522 23.3982 58.3312 22.4918C56.9466 21.6118 55.5886 20.6955 54.2538 19.7425C52.9589 18.8162 51.6939 17.8532 50.4554 16.8506C49.2567 15.8811 48.0946 14.8651 46.9657 13.8158C45.8699 12.7998 44.8175 11.7373 43.8081 10.6383C42.8253 9.56913 41.8923 8.45682 41.0091 7.30796L41.0091 7.30805Z" fill="black"/>
<path d="M42.0453 77.1307L43.6191 77.6752L42.5301 80.8262L40.9562 80.2816C39.7244 79.8566 38.5257 79.3486 37.3603 78.7642C36.2048 78.1798 35.0826 77.5291 34.0035 76.8085C32.9211 76.088 31.8785 75.3078 30.8824 74.4677C29.8763 73.6211 28.9167 72.7279 27.997 71.785C27.0707 70.832 26.1842 69.8392 25.3441 68.81C24.4941 67.7674 23.6873 66.6883 22.9203 65.5826C22.1466 64.4637 21.4129 63.3181 20.7222 62.146C20.025 60.9674 19.3642 59.7654 18.7434 58.5435C17.4983 56.0898 16.3959 53.5729 15.4397 50.9931C14.4933 48.4597 13.6766 45.8799 12.9959 43.2601C12.3385 40.7533 11.8073 38.2165 11.4055 35.6566C11.2162 34.4446 11.0568 33.2261 10.9307 32.0042C10.7713 30.4636 10.6717 28.923 10.6285 27.3757C12.5311 26.4992 14.4137 25.5794 16.2797 24.6198C17.7837 23.8462 19.2745 23.0427 20.7455 22.2093C22.1832 21.3958 23.5976 20.5525 24.9922 19.6759C26.3469 18.8259 27.6783 17.9393 28.9865 17.023C30.2449 16.1331 31.48 15.2101 32.682 14.2505C33.8408 13.3308 34.9664 12.3679 36.0555 11.3685C37.0981 10.4123 38.1008 9.41282 39.0637 8.37362C39.9834 7.38413 40.8567 6.35155 41.6768 5.27911L42.6928 3.95761L45.3358 5.98631L44.3231 7.3078C43.4366 8.45997 42.497 9.5756 41.5075 10.6447C40.4849 11.7471 39.4157 12.8096 38.31 13.8256C37.1612 14.8782 35.9792 15.8875 34.7606 16.857C33.5022 17.8598 32.2172 18.8227 30.9024 19.749C29.5477 20.6986 28.1698 21.615 26.7653 22.4982C25.3276 23.4014 23.8666 24.2712 22.3891 25.1113C20.8784 25.9646 19.3477 26.7914 17.8005 27.585C16.562 28.2225 15.3169 28.8434 14.0618 29.4443C14.1083 30.1848 14.1714 30.9219 14.2478 31.659C14.3673 32.8245 14.5167 33.9833 14.6993 35.1387C15.0845 37.5891 15.5925 40.0196 16.2201 42.4202C16.8742 44.927 17.6544 47.4007 18.5609 49.8312C19.474 52.2915 20.5298 54.6955 21.7152 57.033C22.3029 58.1918 22.9271 59.3306 23.5911 60.4495C24.2419 61.5519 24.9325 62.6343 25.663 63.6868C26.3802 64.7228 27.1339 65.7288 27.9308 66.7017C28.7077 67.658 29.5278 68.5777 30.3878 69.4609C31.2245 70.3242 32.1077 71.1443 33.0275 71.9179C33.9306 72.6749 34.8736 73.3822 35.853 74.0396C36.8192 74.6804 37.822 75.2648 38.858 75.7861C39.8905 76.3041 40.9564 76.7556 42.0455 77.1308L42.0453 77.1307Z" fill="black"/>
</svg>
