<svg width="96" height="98" viewBox="0 0 96 98" fill="none" xmlns="http://www.w3.org/2000/svg">
<path d="M49.92 7.84C34.3085 7.84 20.1446 17.0313 13.4851 31.36H7.6801C7.01635 31.36 6.39764 31.7122 6.04887 32.2902C5.70012 32.8683 5.66637 33.5879 5.96262 34.1966L13.6426 49.8766C13.9689 50.5389 14.6326 50.96 15.3602 50.96C16.0877 50.96 16.7514 50.5389 17.0777 49.8766L24.7577 34.1966C25.0539 33.588 25.0239 32.8682 24.6714 32.2902C24.3227 31.7122 23.704 31.36 23.0402 31.36H17.794C24.1165 19.3628 36.4161 11.76 49.9204 11.76C70.0353 11.76 86.4004 28.4661 86.4004 49C86.4004 69.5339 70.0353 86.24 49.9204 86.24C34.9809 86.24 21.7012 77.0985 16.0958 62.9493C15.6983 61.9464 14.5845 61.464 13.5945 61.8659C12.612 62.2717 12.1358 63.4125 12.5332 64.4193C18.7319 80.0572 33.4055 90.16 49.9204 90.16C72.154 90.16 90.2404 71.6968 90.2404 49C90.2404 26.3032 72.154 7.84 49.9204 7.84H49.92ZM15.36 44.6165L10.785 35.2797H19.9312L15.36 44.6165ZM57.6 52.9197C57.6 56.1621 55.0163 58.7997 51.84 58.7997V61.7397C51.84 62.8231 50.9813 63.6997 49.92 63.6997C48.8588 63.6997 48 62.8231 48 61.7397V58.7997H45.12C44.0587 58.7997 43.2 57.9231 43.2 56.8397C43.2 55.7563 44.0588 54.8797 45.12 54.8797H51.84C52.8975 54.8797 53.76 53.9992 53.76 52.9197C53.76 51.8402 52.8975 50.9597 51.84 50.9597H48C44.8237 50.9597 42.24 48.3221 42.24 45.0797C42.24 41.8373 44.8237 39.1997 48 39.1997V36.2597C48 35.1763 48.8588 34.2997 49.92 34.2997C50.9813 34.2997 51.84 35.1763 51.84 36.2597V39.1997H54.72C55.7813 39.1997 56.64 40.0763 56.64 41.1597C56.64 42.2431 55.7813 43.1197 54.72 43.1197H48C46.9425 43.1197 46.08 44.0002 46.08 45.0797C46.08 46.1592 46.9425 47.0397 48 47.0397H51.84C55.0163 47.0397 57.6 49.6773 57.6 52.9197ZM49.92 71.5397C37.7434 71.5397 27.84 61.43 27.84 48.9997C27.84 36.5694 37.7434 26.4597 49.92 26.4597C62.0966 26.4597 72 36.5694 72 48.9997C72 61.43 62.0966 71.5397 49.92 71.5397ZM49.92 30.3797C39.8621 30.3797 31.68 38.7326 31.68 48.9997C31.68 59.2668 39.8625 67.6197 49.92 67.6197C59.9775 67.6197 68.16 59.2668 68.16 48.9997C68.16 38.7326 59.9775 30.3797 49.92 30.3797Z" fill="black"/>
</svg>
