<svg width="1440" height="483" viewBox="0 0 1440 483" fill="none" xmlns="http://www.w3.org/2000/svg">
<path opacity="0.2" fill-rule="evenodd" clip-rule="evenodd" d="M-1.39062 435.648C62.8186 465.185 229.533 510.884 382.84 457.371C406.818 449.001 423.45 438.725 434.704 427.112C445.963 415.492 451.818 402.557 454.272 388.912C456.725 375.277 455.781 360.945 453.467 346.525C451.796 336.112 449.405 325.627 447.053 315.317C446.15 311.356 445.252 307.42 444.404 303.525C438.273 275.377 434.717 249.341 449.413 229.832C464.113 210.317 497.224 197.147 565.021 195.232C667.039 192.35 736.962 217.538 796.187 238.873C815.631 245.877 833.922 252.466 851.817 257.51C888.016 267.713 922.575 271.576 961.692 259.668C1000.79 247.765 1044.39 220.122 1098.71 167.427C1152.95 114.822 1198.23 99.1744 1238.65 103.958C1279.12 108.747 1314.85 134.017 1349.95 163.567C1358.43 170.707 1366.87 178.097 1375.34 185.504C1401.87 208.72 1428.59 232.107 1457.23 248.479C1495.04 270.099 1536.27 279.534 1584.94 260.313L1584.57 259.383C1536.26 278.465 1495.35 269.122 1457.72 247.61C1429.18 231.293 1402.57 208.002 1376.06 184.802L1376.05 184.801C1367.58 177.382 1359.11 169.972 1350.59 162.802C1315.49 133.248 1279.56 107.792 1238.77 102.965C1197.94 98.1336 1152.38 113.98 1098.02 166.71C1043.75 219.35 1000.29 246.874 961.4 258.711C922.53 270.544 888.178 266.72 852.088 256.547C834.279 251.528 816.042 244.958 796.634 237.966C737.385 216.622 667.22 191.345 564.993 194.232C497.178 196.148 463.619 209.311 448.614 229.23C433.605 249.155 437.31 275.654 443.427 303.738C444.28 307.654 445.18 311.602 446.085 315.57C448.434 325.869 450.814 336.305 452.479 346.683C454.786 361.052 455.712 375.258 453.288 388.735C450.865 402.202 445.095 414.951 433.986 426.416C422.87 437.886 406.388 448.092 382.51 456.427C229.539 509.823 63.1069 464.217 -0.972778 434.739L-1.39062 435.648ZM362.637 423.323C209.33 476.836 42.6155 431.138 -21.5938 401.6L-21.1759 400.691C42.9038 430.17 209.336 475.775 362.307 422.379C386.185 414.044 402.667 403.838 413.782 392.368C424.892 380.904 430.662 368.154 433.085 354.687C435.509 341.21 434.583 327.005 432.276 312.635C430.611 302.257 428.231 291.821 425.882 281.522C424.977 277.554 424.077 273.606 423.224 269.69C417.107 241.606 413.402 215.107 428.411 195.183C443.416 175.263 476.975 162.1 544.79 160.185C647.017 157.297 717.182 182.574 776.431 203.918C795.839 210.91 814.076 217.48 831.885 222.5C867.975 232.672 902.327 236.497 941.197 224.664C980.083 212.826 1023.55 185.302 1077.81 132.662C1132.17 79.9328 1177.74 64.086 1218.57 68.9177C1259.36 73.7447 1295.29 99.2007 1330.39 128.755C1338.91 135.925 1347.37 143.335 1355.85 150.754C1382.36 173.954 1408.98 197.245 1437.52 213.563C1475.15 235.074 1516.05 244.418 1564.37 225.335L1564.73 226.266C1516.07 245.487 1474.84 236.051 1437.02 214.431C1408.38 198.059 1381.66 174.673 1355.14 151.457L1355.13 151.452C1346.67 144.046 1338.23 136.658 1329.75 129.52C1294.65 99.9692 1258.92 74.6996 1218.45 69.9108C1178.03 65.1268 1132.74 80.774 1078.51 133.38C1024.19 186.074 980.589 213.718 941.488 225.62C902.372 237.528 867.812 233.665 831.614 223.462C813.719 218.418 795.428 211.829 775.984 204.825C716.759 183.491 646.836 158.303 544.818 161.184C477.021 163.099 443.91 176.27 429.21 195.784C414.514 215.294 418.07 241.329 424.201 269.477C425.049 273.373 425.947 277.308 426.85 281.27C429.202 291.58 431.593 302.065 433.264 312.477C435.578 326.897 436.522 341.229 434.069 354.864C431.615 368.509 425.76 381.445 414.5 393.064C403.247 404.677 386.615 414.953 362.637 423.323ZM-41.7969 367.552C22.4124 397.09 189.127 442.789 342.434 389.275C366.411 380.906 383.043 370.63 394.297 359.016C405.557 347.397 411.411 334.462 413.866 320.817C416.319 307.182 415.375 292.85 413.061 278.429C411.39 268.017 408.998 257.532 406.647 247.222C405.744 243.261 404.846 239.325 403.998 235.43C397.867 207.281 394.311 181.246 409.007 161.737C423.707 142.222 456.817 129.052 524.615 127.137C626.633 124.255 696.556 149.443 755.781 170.778C775.225 177.782 793.516 184.371 811.411 189.415C847.609 199.618 882.169 203.48 921.285 191.573C960.386 179.67 1003.98 152.027 1058.31 99.3321C1112.54 46.7264 1157.82 31.0792 1198.25 35.8632C1238.71 40.652 1274.44 65.9216 1309.54 95.4721C1318.02 102.609 1326.46 109.997 1334.92 117.402L1334.93 117.404L1334.93 117.408L1334.93 117.409C1361.46 140.625 1388.18 164.011 1416.82 180.383C1454.64 202.004 1495.87 211.439 1544.53 192.218L1544.16 191.288C1495.85 210.37 1454.94 201.026 1417.32 179.515C1388.77 163.198 1362.16 139.907 1335.65 116.707C1327.17 109.287 1318.7 101.877 1310.19 94.7071C1275.08 65.1531 1239.15 39.6971 1198.37 34.8701C1157.54 30.0384 1111.97 45.8852 1057.61 98.6143C1003.34 151.254 959.88 178.779 920.994 190.616C882.124 202.449 847.772 198.624 811.682 188.452C793.873 183.432 775.636 176.863 756.228 169.871C696.979 148.527 626.814 123.25 524.587 126.137C456.772 128.052 423.213 141.216 408.208 161.135C393.199 181.06 396.904 207.559 403.021 235.642C403.873 239.557 404.773 243.502 405.677 247.468L405.678 247.471L405.678 247.473L405.679 247.474C408.028 257.773 410.408 268.21 412.073 278.588C414.38 292.957 415.306 307.163 412.882 320.64C410.459 334.106 404.689 346.856 393.579 358.321C382.464 369.791 365.982 379.996 342.104 388.331C189.133 441.728 22.7007 396.122 -41.379 366.644L-41.7969 367.552ZM-62 333.505C2.20923 363.042 168.924 408.741 322.23 355.228C346.208 346.858 362.84 336.582 374.094 324.969C385.354 313.35 391.208 300.414 393.663 286.769C396.116 273.134 395.172 258.802 392.858 244.382C391.186 233.97 388.795 223.485 386.444 213.174C385.541 209.213 384.643 205.278 383.795 201.382C377.663 173.234 374.107 147.199 388.803 127.689C403.504 108.174 436.614 95.0039 504.412 93.089C606.43 90.2076 676.353 115.395 735.578 136.73C755.022 143.734 773.312 150.323 791.208 155.367C827.406 165.57 861.966 169.433 901.082 157.525C940.183 145.623 983.781 117.979 1038.1 65.2844C1092.34 12.6788 1137.62 -2.96848 1178.05 1.81555C1218.51 6.6044 1254.24 31.874 1289.34 61.4245C1297.82 68.5602 1306.26 75.9465 1314.72 83.3501L1314.73 83.3593L1314.73 83.3614C1341.26 106.578 1367.98 129.964 1396.62 146.336C1434.43 167.956 1475.66 177.392 1524.33 158.17L1523.96 157.24C1475.65 176.322 1434.74 166.979 1397.11 145.468C1368.57 129.15 1341.96 105.859 1315.45 82.6591C1306.97 75.2395 1298.5 67.8293 1289.98 60.6595C1254.88 31.1055 1218.95 5.64944 1178.16 0.822479C1137.33 -4.00925 1091.77 11.8375 1037.41 64.5667C983.141 117.207 939.677 144.731 900.791 156.569C861.921 168.401 827.569 164.577 791.479 154.404C773.671 149.385 755.434 142.815 736.027 135.824L736.025 135.823C676.776 114.479 606.61 89.202 504.384 92.0894C436.568 94.0048 403.009 107.168 388.005 127.087C372.996 147.012 376.7 173.511 382.818 201.595C383.67 205.51 384.57 209.457 385.475 213.425L385.475 213.426L385.476 213.427C387.824 223.726 390.204 234.162 391.87 244.54C394.176 258.909 395.103 273.115 392.679 286.592C390.256 300.059 384.486 312.809 373.376 324.273C362.261 335.743 345.779 345.949 321.901 354.284C168.93 407.68 2.49756 362.074 -61.5822 332.596L-62 333.505Z" fill="url(#paint0_linear_149_2132)"/>
<defs>
<linearGradient id="paint0_linear_149_2132" x1="1395.54" y1="122.348" x2="-47.907" y2="122.348" gradientUnits="userSpaceOnUse">
<stop offset="0.310417" stop-color="#4535AF" stop-opacity="0.7"/>
<stop offset="0.461458" stop-color="#F8EFF4" stop-opacity="0.1"/>
<stop offset="0.851637" stop-color="#4535AF" stop-opacity="0.8"/>
</linearGradient>
</defs>
</svg>
