<svg width="31" height="38" viewBox="0 0 31 38" fill="none" xmlns="http://www.w3.org/2000/svg">
<path fill-rule="evenodd" clip-rule="evenodd" d="M10.0649 16.2896H20.9356V25.5277H10.0649V16.2896ZM11.6862 17.9108H19.3142V23.9064H11.6862V17.9108Z" fill="black"/>
<path d="M13.3185 16.1656V16.9762H11.6973V14.0373C11.6973 13.0281 12.0977 12.0608 12.8098 11.3471C13.5236 10.635 14.4924 10.2329 15.5 10.2329C16.5076 10.2329 17.4765 10.635 18.1902 11.3471C18.9023 12.0608 19.3028 13.0281 19.3028 14.0373V16.9762H17.6815V14.0373C17.6815 13.4592 17.4522 12.9021 17.0437 12.4936C16.6335 12.085 16.0781 11.8541 15.5 11.8541C14.9219 11.8541 14.3664 12.085 13.9563 12.4936C13.5477 12.9021 13.3184 13.4592 13.3184 14.0373L13.3185 16.1656Z" fill="black"/>
<path d="M14.7748 1.62941L14.2823 0.985121L15.5693 0.00012207L16.0618 0.642802C16.4623 1.16436 16.8837 1.66819 17.3294 2.15097C17.7928 2.65641 18.2741 3.14242 18.7762 3.60747C19.2978 4.09352 19.8355 4.5618 20.3894 5.01068C20.9658 5.47735 21.5552 5.92624 22.1591 6.35739C22.784 6.80466 23.4219 7.23421 24.0694 7.64597C24.7395 8.07225 25.4177 8.48401 26.1088 8.87805C26.8177 9.28335 27.5363 9.67574 28.2613 10.0503C29.1639 10.517 30.0779 10.9643 30.9999 11.389C30.9789 12.1415 30.9305 12.8907 30.853 13.64C30.7916 14.2342 30.7141 14.8268 30.6221 15.4162C30.4267 16.6612 30.1683 17.8949 29.8486 19.114C29.5176 20.388 29.1203 21.6427 28.6601 22.8748C28.1951 24.1295 27.659 25.3535 27.0534 26.5468C26.7515 27.141 26.4302 27.7255 26.0911 28.2988C25.7552 28.8688 25.3983 29.4259 25.0221 29.9701C24.6491 30.5078 24.2567 31.0326 23.8433 31.5396C23.4348 32.0402 23.0037 32.523 22.5531 32.9865C22.1058 33.4451 21.6392 33.8794 21.1499 34.2912C20.6655 34.6997 20.1585 35.0791 19.632 35.4296C19.1072 35.78 18.5615 36.0965 17.9995 36.3807C17.4327 36.6649 16.8498 36.9119 16.2507 37.1186L15.4853 37.3834L14.9557 35.851L15.7211 35.5862C16.2507 35.4038 16.7691 35.1842 17.2713 34.9323C17.7751 34.6787 18.2627 34.3945 18.7326 34.0829C19.209 33.7632 19.6676 33.4192 20.1068 33.0511C20.5541 32.6748 20.9836 32.276 21.3905 31.8561C21.8087 31.4266 22.2076 30.9793 22.5854 30.5143C22.973 30.0412 23.3395 29.5519 23.6883 29.0481C24.0436 28.5362 24.3795 28.0098 24.6959 27.4737C25.0189 26.9295 25.3225 26.3757 25.6083 25.8121C26.1847 24.6753 26.6982 23.5062 27.1423 22.3097C27.5831 21.1277 27.9626 19.9247 28.2807 18.7055C28.5859 17.538 28.8329 16.356 29.0203 15.1643C29.1091 14.6024 29.1817 14.0388 29.2399 13.472C29.277 13.1136 29.3077 12.7551 29.3303 12.395C28.7215 12.1027 28.1176 11.8008 27.5169 11.4891C26.7709 11.1048 26.0313 10.7027 25.3031 10.2845C24.5909 9.87756 23.8901 9.4545 23.1991 9.01368C22.5257 8.58575 21.8653 8.14008 21.2161 7.67664C20.5864 7.22614 19.9712 6.75783 19.3688 6.27021C18.7859 5.79871 18.2207 5.3046 17.6717 4.79432C17.1388 4.30021 16.627 3.78349 16.1361 3.24899C15.6581 2.72904 15.2044 2.18809 14.7748 1.62937L14.7748 1.62941Z" fill="black"/>
<path d="M15.2788 35.5861L16.0442 35.8509L15.5146 37.3833L14.7492 37.1185C14.1501 36.9118 13.5672 36.6647 13.0004 36.3805C12.4385 36.0963 11.8927 35.7799 11.3679 35.4294C10.8415 35.079 10.3344 34.6996 9.85001 34.291C9.36074 33.8793 8.89407 33.4449 8.4468 32.9863C7.9963 32.5229 7.56514 32.0401 7.1566 31.5395C6.74322 31.0325 6.35084 30.5077 5.97781 29.9699C5.60157 29.4258 5.24473 28.8687 4.90885 28.2987C4.56976 27.7254 4.2484 27.1409 3.94647 26.5466C3.34095 25.3533 2.80484 24.1293 2.33979 22.8747C1.87958 21.6426 1.48236 20.388 1.15133 19.1139C0.831602 17.8947 0.573257 16.6611 0.377853 15.4161C0.28581 14.8267 0.208301 14.2341 0.146944 13.6398C0.0694351 12.8906 0.0209914 12.1413 0 11.3889C0.925265 10.9626 1.84082 10.5153 2.74831 10.0486C3.47978 9.67237 4.2048 9.28159 4.92016 8.87631C5.61935 8.4807 6.30725 8.07055 6.98544 7.64424C7.64428 7.23086 8.2918 6.7997 8.92799 6.35404C9.53999 5.92128 10.1407 5.47239 10.7252 5.00572C11.2888 4.55845 11.8362 4.09017 12.3658 3.60412C12.8729 3.13907 13.3605 2.65302 13.8288 2.14763C14.2761 1.66641 14.7008 1.16424 15.0996 0.64268L15.5938 0L16.8791 0.98661L16.3866 1.62929C15.9555 2.18962 15.4985 2.73218 15.0173 3.25213C14.52 3.78824 14 4.30497 13.4623 4.79908C12.9036 5.31096 12.3287 5.80185 11.7361 6.27335C11.1241 6.76101 10.4992 7.22929 9.85974 7.67979C9.2009 8.14161 8.53081 8.58728 7.84775 9.01682C7.14856 9.45603 6.43804 9.87908 5.71951 10.2876C4.98481 10.7026 4.2404 11.1047 3.48792 11.4906C2.88563 11.8007 2.28007 12.1026 1.66972 12.3949C1.69233 12.755 1.72301 13.1135 1.76015 13.472C1.81828 14.0387 1.89094 14.6023 1.97975 15.1643C2.16706 16.3559 2.41413 17.538 2.71933 18.7054C3.03744 19.9246 3.41691 21.1276 3.85773 22.3096C4.30178 23.5061 4.81528 24.6752 5.39174 25.812C5.67755 26.3756 5.98113 26.9294 6.30407 27.4736C6.62056 28.0097 6.95642 28.5361 7.31168 29.048C7.66046 29.5518 8.02703 30.041 8.41457 30.5142C8.79242 30.9792 9.19127 31.4265 9.60948 31.8561C10.0164 32.2759 10.4459 32.6748 10.8932 33.051C11.3324 33.4191 11.791 33.7631 12.2674 34.0828C12.7373 34.3945 13.2249 34.6787 13.7288 34.9322C14.2309 35.1841 14.7493 35.4037 15.2789 35.5861L15.2788 35.5861Z" fill="black"/>
</svg>
