<svg width="40" height="40" viewBox="0 0 40 40" fill="none" xmlns="http://www.w3.org/2000/svg">
<path d="M12.0001 26.4795C12.1891 26.6686 12.2938 26.9264 12.2922 27.1936C12.2907 27.4608 12.1813 27.7155 11.9907 27.903C11.7985 28.0889 11.5407 28.1905 11.2735 28.1858C11.0063 28.1811 10.7516 28.0702 10.5688 27.8764C9.16412 26.4405 8.1016 24.7045 7.46412 22.8C7.37818 22.5469 7.39537 22.2703 7.51568 22.0313C7.63443 21.7906 7.84381 21.6094 8.09848 21.5266C8.35161 21.4422 8.62972 21.4641 8.86724 21.586C9.10474 21.7094 9.28444 21.9203 9.36412 22.1766C9.90632 23.7907 10.8079 25.2625 12 26.4798L12.0001 26.4795ZM31.9001 21.5231C31.6485 21.4388 31.3735 21.4591 31.136 21.5778C30.8985 21.6981 30.7188 21.9075 30.636 22.1591C30.0953 23.781 29.1938 25.2575 28.0001 26.4795C27.811 26.6685 27.7063 26.9263 27.7079 27.1935C27.7094 27.4607 27.8188 27.7154 28.0094 27.9029C28.2016 28.0888 28.4594 28.1904 28.7266 28.1857C28.9938 28.181 29.2485 28.0701 29.4313 27.8763C30.8375 26.4404 31.8985 24.7045 32.536 22.7999C32.6235 22.5468 32.6047 22.2687 32.486 22.0281C32.3657 21.789 32.1547 21.6062 31.9001 21.5234L31.9001 21.5231ZM17.5001 7.76394C19.1594 7.38582 20.8813 7.38582 22.5409 7.76394C22.8018 7.83425 23.0815 7.79363 23.3127 7.65457C23.5455 7.51394 23.7112 7.28581 23.7721 7.02177C23.833 6.7577 23.783 6.47957 23.6362 6.25301C23.4877 6.02488 23.2549 5.86707 22.9877 5.81549C21.0362 5.37017 19.008 5.37017 17.0565 5.81549C16.569 5.97486 16.2815 6.47797 16.3909 6.97957C16.5003 7.48113 16.9706 7.81709 17.48 7.75925L17.5001 7.76394ZM7.96885 1.95154C10.272 1.9406 12.1501 3.79686 12.1689 6.09994C12.1689 8.42026 10.2876 10.2999 7.96885 10.2999C5.64854 10.2999 3.76886 8.42026 3.76886 6.09994C3.78604 3.79682 5.66418 1.94074 7.96885 1.95154ZM7.96885 3.95154C7.10477 3.97342 6.33762 4.50934 6.02042 5.31402C5.70479 6.11714 5.90166 7.03278 6.51886 7.6359C7.13762 8.24058 8.05793 8.41402 8.85321 8.07966C9.65009 7.74373 10.1673 6.96402 10.1689 6.09998C10.1532 4.89998 9.16885 3.93906 7.96885 3.95154ZM8.97665 14.7107L10.9157 12.7998H11.5235C11.9985 12.7936 12.4563 12.9764 12.7954 13.3061C13.136 13.6373 13.3298 14.0889 13.3361 14.5639V16.8561C13.3361 17.4076 13.7845 17.8561 14.3361 17.8561C14.8892 17.8561 15.3361 17.4076 15.3361 16.8561V14.5639C15.3204 12.4732 13.6157 10.7889 11.5236 10.7998H10.5079C10.2454 10.7998 9.99545 10.9045 9.80793 11.0873L7.96729 12.8951L6.12666 11.0873H6.12822C5.94228 10.9045 5.6907 10.7998 5.42822 10.7998H4.4001C2.31418 10.7951 0.615738 12.4779 0.600098 14.5639V16.8561C0.600098 17.4076 1.04854 17.8561 1.6001 17.8561C2.15166 17.8561 2.6001 17.4076 2.6001 16.8561V14.5639C2.6126 13.5811 3.4173 12.7935 4.4001 12.7998H5.0079L6.95166 14.7123C7.51574 15.2623 8.41574 15.2607 8.97666 14.7076L8.97665 14.7107ZM36.2315 6.09514C36.2315 8.41546 34.3518 10.2951 32.0315 10.2951C29.7127 10.2951 27.8315 8.41546 27.8315 6.09514C27.8315 3.77638 29.7127 1.89514 32.0315 1.89514C34.3518 1.89514 36.2315 3.77638 36.2315 6.09514ZM34.2315 6.09514C34.2533 5.20138 33.7315 4.38422 32.9111 4.02638C32.0908 3.67013 31.1361 3.84513 30.4955 4.47014C29.8564 5.09514 29.658 6.04514 29.9955 6.87326C30.333 7.70138 31.1377 8.24358 32.0314 8.24358C33.233 8.25764 34.2173 7.2967 34.2314 6.09514H34.2315ZM35.6002 10.7999H34.5721C34.3096 10.7999 34.058 10.9046 33.8721 11.0874L32.0315 12.8952L30.1908 11.0874H30.1924C30.0049 10.9046 29.7549 10.7999 29.4924 10.7999H28.4767C26.3845 10.789 24.6799 12.4734 24.6643 14.564V16.8562C24.6643 17.4078 25.1111 17.8562 25.6643 17.8562C26.2158 17.8562 26.6643 17.4078 26.6643 16.8562V14.564C26.6705 14.089 26.8643 13.6375 27.2049 13.3062C27.544 12.9765 28.0018 12.7937 28.4768 12.8H29.0846L31.0283 14.7078C31.5877 15.2437 32.469 15.2437 33.0283 14.7078L34.9799 12.8H35.6002C36.0752 12.7937 36.5315 12.9765 36.8721 13.3062C37.2112 13.6375 37.4065 14.089 37.4127 14.564V16.8562C37.4127 17.4078 37.8596 17.8562 38.4127 17.8562C38.9643 17.8562 39.4127 17.4078 39.4127 16.8562V14.564C39.3971 12.4734 37.6909 10.789 35.6003 10.7999H35.6002ZM15.8002 26.2919C15.7799 24.5888 16.7893 23.0404 18.3565 22.3747C19.9237 21.7075 21.7393 22.0544 22.9517 23.2513C24.1626 24.4482 24.5313 26.2591 23.8845 27.8341C23.2376 29.4107 21.7032 30.4403 20.0001 30.4403C17.697 30.4513 15.8173 28.595 15.8001 26.2919H15.8002ZM17.8002 26.2919C17.7768 27.1857 18.2987 28.006 19.119 28.3638C19.9393 28.7216 20.894 28.5482 21.5346 27.9232C22.1753 27.2982 22.3753 26.3482 22.0377 25.5201C21.7002 24.6904 20.8955 24.1482 20.0002 24.1482C18.8018 24.1341 17.8174 25.0935 17.8002 26.2919ZM23.5566 30.9951H22.541C22.2785 30.9967 22.0269 31.0998 21.841 31.2842L20.0003 33.092L18.1597 31.2842C17.9738 31.0998 17.7222 30.9967 17.4597 30.9951H16.4441C14.3534 30.9842 12.6472 32.6686 12.6316 34.7592V37.0514C12.6316 37.6045 13.08 38.0514 13.6316 38.0514C14.1847 38.0514 14.6316 37.6045 14.6316 37.0514V34.7592C14.6394 34.2858 14.8331 33.8327 15.1722 33.503C15.5128 33.1717 15.9707 32.9889 16.4441 32.9952H17.0519L18.9957 34.9077C19.555 35.4436 20.4379 35.4436 20.9957 34.9077L22.9394 32.9999H23.5488C24.0222 32.9936 24.48 33.1764 24.8191 33.5061C25.1597 33.8374 25.3535 34.2889 25.3597 34.7639V37.0561C25.3597 37.6077 25.8082 38.0561 26.3597 38.0561C26.9129 38.0561 27.3597 37.6077 27.3597 37.0561V34.7592C27.3457 32.6717 25.6441 30.9889 23.5566 30.9951Z" fill="black"/>
</svg>
